<?xml version="1.0" encoding="UTF-8"?><svg id="Calque_2" xmlns="http://www.w3.org/2000/svg" viewBox="0 0 399.06 106.77"><defs><style>.cls-1{fill:#c60000;stroke-width:0px;}</style></defs><g id="Calque_1-2"><path class="cls-1" d="M141.78,59.98c0,.27-.16.68-.48,1.22v.24h.28c0-.29.14-.7.43-1.22v-.24h-.23ZM83.31,41.1c7.44-16.21,11.2-26.42,11.27-30.63-.21-1.78-.94-2.66-2.18-2.66-9.03,0-23.65,10.94-43.87,32.8h-22.56c0-.49-.16-.74-.51-.74h-.71c-1.05,0-2.03.41-2.96,1.23.18.68.68,1.01,1.49,1.01,10.21-.18,18.05-.26,23.52-.26h.51c-.61.87-2.59,3.07-5.92,6.6-13.57,15.58-26.3,31.43-38.18,47.57l-.51-.28h-1.23c-.48,0-.96,1.32-1.47,3.96,0,.33.42.57,1.24.71.54,0,1.11-.24,1.72-.71,8.65-11.63,16.82-22.1,24.51-31.42,8.26-10.23,15.93-19.04,23-26.43h12.76c7.27,0,12.81.15,16.65.47h.27c-3.88,8.3-12.46,26.2-25.73,53.7,0,.29.15.44.45.44h1.73c.34-.07.67-.47.99-1.22l-.28-.45c16.87-34.21,25.29-51.62,25.29-52.23h2.17c.35,0,.52-.15.52-.45v-.26c0-.51-.67-.75-1.98-.75ZM80.87,40.89c-12.98-.35-22.61-.52-28.9-.52h-.27c18.77-20.18,32.16-30.63,40.19-31.33l.23.94c0,4.41-3.75,14.71-11.25,30.91ZM247.89,20.17c0-.49-.18-.72-.51-.72h-.96l-.5.2c-1.96,4.58-4.33,9.57-7.12,14.94-1.83,4-4.44,8.75-7.79,14.26h-.28c-.84-.82-1.56-1.22-2.17-1.22h-.28l-1.22.2c-1.11,1.21-2,2.33-2.71,3.38-.86.39-2.55,1.48-5.09,3.26h-.26c.51-1.3.78-2.12.78-2.45v-.99c-.21,0-.78-.31-1.74-.96,0-.4.24-1.15.71-2.24,0-1.63-.73-2.45-2.21-2.45h-.24c-.88,0-1.61.49-2.21,1.47v.98c.34,1.49.75,2.24,1.23,2.24-.28.49-.54.96-.8,1.43-2.79,1.99-5.07,3.45-6.82,4.4h-.21c0-1.41.98-4.37,2.92-8.85v-.24c0-.28-.15-.45-.47-.51h-.75c-.25,0-.99.75-2.21,2.25-.43,0-1.01-.09-1.74-.28-.75,0-1.56.25-2.44.72-1.05.65-1.86,1.35-2.46,2.07-2.5,2.41-4.28,3.94-5.34,4.56.45-1.72,1.04-3.43,1.74-5.13-.14-.82-.39-1.23-.75-1.23h-.71c-1.82,0-3.71,1.63-5.69,4.9.18-.59.27-.92.27-.99,6.7-16.67,10.13-25.49,10.31-26.47v-.47c-.11-.35-.52-.67-1.22-.96-.32,0-.72.15-1.23.44l.24,1.23c-4.57,11.36-7.77,19.61-9.63,24.76-.2.04-.38.11-.54.21-4.65,3.91-7.68,5.86-9.09,5.86h-.71c0-.16-.08-.41-.24-.75,1.65-4.75,3.52-7.11,5.62-7.11,0,.45-.16.94-.49,1.5,0,.33.16.5.49.5h1.22c.42,0,.75-.57.95-1.73,0-.88-.72-1.47-2.17-1.73-2.08,0-3.84,1.06-5.33,3.19-2.6,1.92-4.95,3.45-7.1,4.59v-1.22c1.63-3.88,2.45-6.09,2.45-6.63v-.24c-.23-.48-.46-.72-.71-.72h-.96l-.78.51c0,.14.09.38.27.71-1.82,4.09-2.71,6.71-2.71,7.87,0,.96.49,1.43,1.49,1.43h.75c1.8-.56,3.63-1.51,5.48-2.84-.23.6-.46,1.24-.69,1.92,0,1.18.82,1.93,2.46,2.24,2.56,0,5.68-1.58,9.34-4.69-.27.81-.49,1.51-.63,2.04v.23c.09.49.57.72,1.46.72h.48c1.15,0,2.87-1.95,5.14-5.85h.27c-.82,1.84-1.23,3.14-1.23,3.91v.99c.23.48.47.72.72.72h2.18c.86-.42,1.99-1.3,3.39-2.62v.16c.14.5.65.75,1.5.75h.52c1.5,0,2.96-.99,4.39-2.96h.24v.28c-.35.63-.52,1.53-.52,2.68v.28c0,.94.51,1.43,1.5,1.43h.75c1.26,0,2.97-.79,5.1-2.32-1.72,3.24-3.1,6.11-4.11,8.54,0,.3.16.45.47.45h1.46c1.34-2.93,3.56-7.1,6.64-12.49l.48.23c0,.25-.24,1.16-.71,2.73,0,.97.57,1.46,1.73,1.46h.45c1.03,0,2.27-.5,3.72-1.49-.17.52-.27,1.02-.29,1.49v.27c0,.3.15.45.45.45h1.73c.61,0,1.52-.42,2.73-1.23,1.64-1.64,2.88-2.45,3.67-2.45,0-1.04.73-2.35,2.18-3.91-5.73,13.01-8.58,19.96-8.58,20.82.11.5.61.75,1.49.75h.21l.75-.51c0-.16-.08-.4-.24-.72l21.07-49.23ZM201.57,53.88h-.21v-.23c.69-1.77,1.66-2.99,2.94-3.67h.5l.44.23c0,.39-1.22,1.61-3.67,3.67ZM216.54,47.83l-.44-.2c0-.32.14-.5.44-.52v.72ZM229,51.03c-1.02,1.68-2.39,2.99-4.12,3.95.43-1.78,1.57-3.67,3.4-5.68.32,0,.56.49.72,1.49v.24ZM109.52,42.83c-1.8.93-2.69,1.5-2.69,1.73,0,.32.17.48.51.48h.71c.41,0,1.4-.23,2.96-.72v-1.49h-1.49ZM126.39,51.44h-1.22c-3.67,3.61-5.71,5.4-6.13,5.4,1.96-4.49,2.93-7.1,2.93-7.85v-.96c-.24-.47-.48-.71-.71-.71h-.98c-1.24,0-2.94,1.46-5.15,4.39h-.27l.27-.51v-.47c0-.3-.16-.47-.51-.52h-.71c-.76.79-1.36,1.56-1.85,2.31-2.12,1.5-4.08,2.75-5.87,3.71v-1.22c1.62-3.88,2.44-6.09,2.44-6.63v-.24c-.22-.48-.46-.72-.71-.72h-.96l-.77.51c0,.14.08.38.26.71-.49,1.11-.91,2.11-1.26,2.99-2.71,1.92-4.93,3.35-6.63,4.27h-.2c0-1.41.97-4.37,2.92-8.85v-.24c0-.28-.16-.45-.47-.51h-.75c-.25,0-.99.75-2.21,2.25-.44,0-1.02-.09-1.74-.28-.75,0-1.57.25-2.45.72-1.75,1.1-2.87,2.3-3.37,3.59-4.26,5-6.79,7.5-7.59,7.5h-.28c0-.14-.05-.38-.19-.71.14-3.65,4.46-14.85,12.96-33.59,2.92-6.18,4.39-9.44,4.39-9.81,2.63-3.94,4.36-7.13,5.17-9.56,0-.63-.23-.95-.72-.95h-.5l-1.22.24c-14.71,31.01-22.06,48.74-22.06,53.16v1.01c0,1.12.58,1.67,1.74,1.67,2.4,0,5.25-2.02,8.54-6.08.24.1.56.16.95.16h.52c1.49,0,2.96-.99,4.38-2.96h.24v.28c-.34.63-.51,1.53-.51,2.68v.28c0,.94.49,1.43,1.5,1.43h.75c1.38,0,3.32-.94,5.77-2.81-.26.88-.4,1.54-.4,1.99,0,.96.5,1.43,1.5,1.43h.75c1.59-.49,3.19-1.29,4.83-2.39-.05.27-.07.53-.07.79v.27c0,.34.15.51.45.51h1.73c.39,0,2.59-2.54,6.61-7.62h.23c-1.93,4.33-2.89,6.87-2.89,7.62v1.22l1.22.21h.95c1.69,0,4.29-2.11,7.84-6.33v-.27c0-.3-.16-.46-.49-.51ZM92.43,53.88h-.2v-.23c.68-1.77,1.66-2.99,2.92-3.67h.52l.44.23c0,.39-1.22,1.61-3.68,3.67ZM203.27,104.8c-.98.16-1.46.4-1.46.75-.32,0-1.06-.42-2.21-1.23-7.72-8.81-15.38-18.68-23.01-29.64-9.57-13.82-15.94-24.02-19.09-30.62l.95-.28c3.88,0,8.94-.64,15.18-1.93,4.9-1.4,8.65-3.02,11.27-4.91,7.52-6.01,11.29-11.49,11.29-16.44,0-.82-.16-1.77-.51-2.89-1.43-2.97-4.03-4.46-7.82-4.46h-1.23c-5.72,0-12.25,3.12-19.6,9.37-4.38,4.1-7.82,7.92-10.31,11.46-5.94,8.58-10.76,17.15-14.43,25.72h-.28v-.23c6.55-16.99,12.35-31.03,17.43-42.14.98,0,1.46-.72,1.46-2.17-.23-.68-.47-1.02-.74-1.02h-.72l-1.22.23-10.79,24.78c-10.44,26.41-15.66,40.7-15.66,42.88.48.64.8.95.96.95h.71c.73,0,1.3-.31,1.74-.95,6.33-15.52,12.04-27.94,17.14-37.26,4.16-7.15,9.15-13.75,14.98-19.81,7.9-7.05,14.34-10.59,19.33-10.59h.71c4.27.46,6.41,2.35,6.41,5.69,0,4.29-3.03,9.25-9.09,14.91-7.67,5.24-17.48,7.86-29.41,7.86l-.71.51,1.23,2.45c8.12,14.92,17.75,29.37,28.89,43.32,8.33,11.44,13.8,17.32,16.43,17.66h1.47c.88,0,1.45-.4,1.7-1.22,0-.23-.33-.49-.99-.75ZM141.78,59.98c0,.27-.16.68-.48,1.22v.24h.28c0-.29.14-.7.43-1.22v-.24h-.23ZM174.28,42.83c-1.8.93-2.69,1.5-2.69,1.73,0,.32.17.48.51.48h.72c.4,0,1.39-.23,2.96-.72v-1.49h-1.5ZM361.12,51.71h-.78c-3.41,2.97-6.1,4.53-8.08,4.66h-.23c0-.51.4-1.67,1.22-3.43,3.61-1.05,5.42-2.02,5.42-2.9,0-1.02-.67-1.59-2.01-1.73h-.45l-1.73.51c-.88.95-1.6,1.69-2.19,2.24-.73.27-2.51,1.39-5.33,3.38h-.28c.52-1.3.79-2.12.79-2.46v-.99c-.21,0-.79-.31-1.74-.95,0-.41.24-1.16.71-2.24,0-1.64-.74-2.45-2.21-2.45h-.23c-.89,0-1.63.48-2.22,1.46v.99c.34,1.5.75,2.24,1.23,2.24-.38.66-.74,1.3-1.09,1.93-3.42,1.99-5.34,3.01-5.73,3.01l-.43-.24c.47-1.71.71-2.76.71-3.17v-.51l-1.23-.27h-.27l-.71.51c-2.34,2.77-3.64,4.15-3.92,4.15,0-.33.73-2.44,2.18-6.32v-.52c0-.27-.15-.44-.44-.51h-.78c-.78,0-1.83,2.46-3.17,7.35,0,.82.24,1.31.71,1.47h1.74c.82,0,1.87-.65,3.16-1.94,0,.82.59,1.22,1.74,1.22h1.22c1.13-.11,2.34-.55,3.63-1.3-1.75,3.29-3.14,6.17-4.17,8.62,0,.3.16.45.48.45h1.47c1.34-2.93,3.55-7.1,6.64-12.49l.47.23c0,.25-.24,1.16-.72,2.73,0,.97.58,1.46,1.74,1.46h.44c1.01,0,2.2-.48,3.57-1.4-.27.59-.43,1.15-.43,1.67,0,.95.57,1.43,1.73,1.43h1.44c2.44,0,5.3-1.63,8.57-4.9v-.47c0-.3-.15-.48-.44-.52ZM356.45,49.77l-1.02.99h-.2c.06-.34.48-.68,1.22-.99ZM344.23,47.8l-.44-.21c0-.32.15-.49.44-.51v.72ZM397.82,23.76h-58.38c1.48-3.39,2.21-5.43,2.21-6.13,0-.28-.16-.43-.48-.47h-.75l-.47.26c-1.86,4.23-2.93,6.34-3.21,6.34h-14.91c-.8,0-1.31.25-1.5.75,0,.31.17.47.49.47h15.73l-11.49,26.91c-3.5,2.05-5.47,3.09-5.85,3.09l-.44-.24c.47-1.71.71-2.76.71-3.17v-.51l-1.23-.27h-.26l-.72.51c-2.34,2.77-3.65,4.15-3.92,4.15,0-.33.73-2.44,2.18-6.32v-.52c0-.27-.15-.44-.44-.51h-.78c-.58,0-1.3,1.34-2.18,4.02-1.61,1.49-3.07,2.47-4.37,2.93.49-2.18.72-3.33.72-3.45-.27-1.62-.83-2.44-1.7-2.44l-1.46.27c-.82.62-1.49,1.31-2.05,2.05-.79,0-1.6.48-2.44,1.46-16.6,13.07-28.78,19.6-36.53,19.6h-1.75c-5.53-1.85-8.3-5.85-8.3-11.98.16-1.67.57-4.05,1.23-7.11,1.43-4.38,3.71-9.2,6.83-14.44,4.52-7.06,10.33-14.18,17.4-21.34,6.14-5.52,11.54-9.43,16.21-11.75,6.4-3.13,12.03-4.7,16.89-4.7,1.5,0,2.55.58,3.16,1.74v1.46c0,1.02-.88,3.23-2.65,6.61-1.78,1.43-3.34,3.32-4.7,5.64.27.49.53.72.78.72h1.47c5.03-5.88,7.55-10.11,7.55-12.7v-1.22c-.29-2.32-1.67-3.47-4.11-3.47h-3.44c-4.83,0-10.56,1.71-17.17,5.14-4.56,2.02-10.53,6.51-17.9,13.48-15.84,17.3-23.77,31.04-23.77,41.22v1.95c0,.77.07,1.59.21,2.45,1.97,6.54,5.82,9.8,11.55,9.8,3.85-.2,5.98-.53,6.39-.98,3.84-.23,12.01-4.48,24.52-12.77,3.12-2.5,5.5-4.38,7.14-5.66-.13.61-.2,1.23-.2,1.88v.27c0,.84.32,1.4.95,1.67h2.21c1.33-.84,1.98-1.57,1.98-2.18,1.58,0,3.09-.48,4.53-1.42-.05.2-.11.39-.17.6,0,.82.23,1.31.72,1.47h1.74c.8,0,1.86-.65,3.15-1.94,0,.82.58,1.22,1.74,1.22h1.23c1.3-.13,2.71-.69,4.22-1.66l-7.79,18.25c0,.35.41.61,1.22.74.96,0,1.95-1.14,2.96-3.41,0-.52-.16-.77-.5-.77,12.59-29.28,18.9-44.07,18.9-44.37h54.19l.72.52h.96c2.97,0,4.46-.24,4.46-.72v-.78l-1.24-.24ZM303.82,57.23h-.24v-.72l.24-2.45c.73,1.14,1.13,1.7,1.22,1.7-.2.68-.61,1.17-1.22,1.47ZM306.27,53.55h-.24v-.95h.24v.95ZM306.54,52.32h-.27v-.95h.27v.95Z"/></g></svg>