<svg width="1000" height="303" viewBox="0 0 1000 303" fill="none" xmlns="http://www.w3.org/2000/svg">
<g filter="url(#filter0_f_3_149)">
<mask id="path-1-outside-1_3_149" maskUnits="userSpaceOnUse" x="9" y="9" width="982" height="279" fill="black">
<rect fill="white" x="9" y="9" width="982" height="279"/>
<path d="M361.074 164.291C361.074 164.941 360.689 165.927 359.919 167.226V167.803H360.592C360.592 167.106 360.929 166.119 361.627 164.868V164.291H361.074ZM220.415 118.872C238.313 79.8767 247.358 55.315 247.527 45.1872C247.021 40.9051 245.265 38.7882 242.282 38.7882C220.559 38.7882 185.389 65.106 136.746 117.694H82.4748C82.4748 116.515 82.0899 115.913 81.2479 115.913H79.5399C77.014 115.913 74.6564 116.9 72.4192 118.872C72.8522 120.508 74.055 121.302 76.0036 121.302C100.565 120.869 119.426 120.677 132.585 120.677H133.811C132.344 122.77 127.581 128.062 119.57 136.554C86.9253 174.034 56.3013 212.164 27.7221 250.991L26.4953 250.317H23.5363C22.3816 250.317 21.2269 253.493 20 259.844C20 260.637 21.0104 261.215 22.983 261.552C24.2821 261.552 25.6533 260.974 27.1207 259.844C47.9296 231.866 67.5838 206.679 86.0833 184.258C105.954 159.648 124.405 138.454 141.413 120.677H172.109C189.599 120.677 202.926 121.037 212.164 121.807H212.813C203.479 141.774 182.839 184.835 150.916 250.991C150.916 251.688 151.276 252.049 151.998 252.049H156.16C156.978 251.881 157.772 250.919 158.542 249.114L157.868 248.032C198.451 165.734 218.707 123.852 218.707 122.385H223.927C224.769 122.385 225.178 122.024 225.178 121.302V120.677C225.178 119.45 223.566 118.872 220.415 118.872ZM214.545 118.367C183.32 117.525 160.153 117.116 145.022 117.116H144.372C189.526 68.5701 221.738 43.4311 241.055 41.7471L241.609 44.0084C241.609 54.6174 232.588 79.3956 214.545 118.367ZM616.337 68.522C616.337 67.3433 615.904 66.79 615.111 66.79H612.801L611.598 67.2711C606.883 78.289 601.182 90.2932 594.47 103.212C590.068 112.834 583.789 124.261 575.73 137.516H575.056C573.036 135.544 571.304 134.581 569.836 134.581H569.163L566.228 135.062C563.557 137.973 561.416 140.668 559.708 143.193C557.639 144.132 553.574 146.754 547.464 151.036H546.838C548.065 147.909 548.714 145.936 548.714 145.142V142.76C548.209 142.76 546.838 142.015 544.529 140.451C544.529 139.489 545.106 137.685 546.237 135.062C546.237 131.141 544.481 129.169 540.92 129.169H540.343C538.226 129.169 536.47 130.347 535.026 132.705V135.062C535.844 138.647 536.831 140.451 537.985 140.451C537.312 141.63 536.686 142.76 536.061 143.891C529.349 148.678 523.864 152.191 519.654 154.476H519.149C519.149 151.084 521.507 143.963 526.173 133.186V132.609C526.173 131.935 525.813 131.526 525.043 131.382H523.239C522.637 131.382 520.857 133.186 517.922 136.794C516.888 136.794 515.492 136.578 513.736 136.121C511.932 136.121 509.983 136.722 507.866 137.853C505.341 139.417 503.392 141.101 501.949 142.833C495.934 148.63 491.652 152.311 489.102 153.802C490.185 149.665 491.604 145.551 493.288 141.461C492.951 139.489 492.35 138.502 491.484 138.502H489.776C485.398 138.502 480.851 142.424 476.088 150.29C476.521 148.871 476.737 148.077 476.737 147.909C492.855 107.806 501.107 86.5885 501.54 84.2309V83.1003C501.275 82.2583 500.289 81.4885 498.605 80.7909C497.835 80.7909 496.873 81.1517 495.646 81.8493L496.223 84.8083C485.229 112.137 477.531 131.983 473.057 144.372C472.576 144.469 472.143 144.637 471.758 144.877C460.571 154.284 453.282 158.975 449.89 158.975H448.182C448.182 158.59 447.99 157.988 447.605 157.17C451.574 145.744 456.073 140.066 461.125 140.066C461.125 141.149 460.74 142.327 459.946 143.675C459.946 144.469 460.331 144.877 461.125 144.877H464.06C465.07 144.877 465.864 143.506 466.345 140.716C466.345 138.599 464.613 137.179 461.125 136.554C456.121 136.554 451.887 139.104 448.302 144.228C442.048 148.847 436.395 152.527 431.222 155.27V152.335C435.144 143.001 437.116 137.685 437.116 136.386V135.808C436.563 134.653 436.01 134.076 435.408 134.076H433.099L431.222 135.303C431.222 135.64 431.439 136.217 431.872 137.011C427.494 146.85 425.353 153.153 425.353 155.943C425.353 158.253 426.531 159.384 428.937 159.384H430.741C435.071 158.036 439.474 155.751 443.924 152.551C443.371 153.995 442.818 155.535 442.264 157.17C442.264 160.009 444.237 161.813 448.182 162.559C454.341 162.559 461.846 158.758 470.651 151.276C470.001 153.225 469.472 154.909 469.135 156.184V156.737C469.352 157.916 470.507 158.469 472.648 158.469H473.802C476.569 158.469 480.707 153.778 486.167 144.396H486.817C484.844 148.823 483.858 151.95 483.858 153.802V156.184C484.411 157.339 484.989 157.916 485.59 157.916H490.834C492.903 156.906 495.622 154.789 498.99 151.613V151.998C499.326 153.201 500.553 153.802 502.598 153.802H503.849C507.457 153.802 510.97 151.421 514.41 146.682H514.987V147.355C514.145 148.871 513.736 151.036 513.736 153.802V154.476C513.736 156.737 514.963 157.916 517.345 157.916H519.149C522.18 157.916 526.294 156.016 531.418 152.335C527.28 160.129 523.96 167.034 521.531 172.879C521.531 173.601 521.915 173.962 522.661 173.962H526.173C529.397 166.913 534.738 156.882 542.147 143.915L543.302 144.468C543.302 145.07 542.724 147.259 541.594 151.036C541.594 153.369 542.965 154.548 545.755 154.548H546.838C549.316 154.548 552.299 153.345 555.787 150.964C555.378 152.215 555.138 153.418 555.089 154.548V155.198C555.089 155.919 555.45 156.28 556.172 156.28H560.334C561.801 156.28 563.99 155.27 566.901 153.321C570.846 149.376 573.83 147.427 575.73 147.427C575.73 144.926 577.486 141.774 580.974 138.021C567.19 169.319 560.334 186.038 560.334 188.107C560.598 189.31 561.801 189.911 563.918 189.911H564.423L566.228 188.684C566.228 188.3 566.035 187.722 565.65 186.952L616.337 68.522ZM504.908 149.617H504.402V149.063C506.062 144.805 508.396 141.87 511.475 140.235H512.678L513.736 140.788C513.736 141.726 510.801 144.661 504.908 149.617ZM540.92 135.062L539.862 134.581C539.862 133.811 540.198 133.378 540.92 133.33V135.062ZM570.895 142.76C568.441 146.802 565.145 149.953 560.983 152.263C562.018 147.981 564.76 143.434 569.163 138.599C569.932 138.599 570.51 139.777 570.895 142.183V142.76ZM283.467 123.034C279.137 125.271 276.996 126.643 276.996 127.196C276.996 127.966 277.405 128.351 278.223 128.351H279.931C280.917 128.351 283.299 127.797 287.052 126.619V123.034H283.467ZM324.051 143.747H321.116C312.287 152.431 307.379 156.737 306.369 156.737C311.084 145.936 313.418 139.657 313.418 137.853V135.544C312.84 134.413 312.263 133.836 311.71 133.836H309.352C306.369 133.836 302.279 137.348 296.963 144.396H296.313L296.963 143.169V142.039C296.963 141.317 296.578 140.908 295.736 140.788H294.028C292.2 142.688 290.756 144.541 289.577 146.345C284.478 149.953 279.762 152.96 275.456 155.27V152.335C279.353 143.001 281.326 137.685 281.326 136.386V135.808C280.797 134.653 280.22 134.076 279.618 134.076H277.309L275.456 135.303C275.456 135.64 275.649 136.217 276.082 137.011C274.903 139.681 273.893 142.087 273.051 144.204C266.531 148.823 261.191 152.263 257.101 154.476H256.62C256.62 151.084 258.954 143.963 263.645 133.186V132.609C263.645 131.935 263.26 131.526 262.514 131.382H260.71C260.108 131.382 258.328 133.186 255.393 136.794C254.335 136.794 252.939 136.578 251.207 136.121C249.403 136.121 247.43 136.722 245.313 137.853C241.104 140.499 238.409 143.386 237.206 146.489C226.958 158.518 220.872 164.532 218.948 164.532H218.274C218.274 164.195 218.154 163.618 217.817 162.824C218.154 154.043 228.546 127.1 248.994 82.0177C256.019 67.1508 259.555 59.3084 259.555 58.4183C265.882 48.94 270.044 41.266 271.992 35.4202C271.992 33.9047 271.439 33.1349 270.26 33.1349H269.057L266.122 33.7122C230.735 108.312 213.054 150.964 213.054 161.597V164.026C213.054 166.721 214.449 168.044 217.239 168.044C223.013 168.044 229.869 163.184 237.784 153.418C238.361 153.658 239.131 153.802 240.069 153.802H241.32C244.905 153.802 248.441 151.421 251.857 146.682H252.434V147.355C251.616 148.871 251.207 151.036 251.207 153.802V154.476C251.207 156.737 252.386 157.916 254.816 157.916H256.62C259.94 157.916 264.607 155.655 270.501 151.156C269.875 153.273 269.538 154.861 269.538 155.943C269.538 158.253 270.741 159.384 273.147 159.384H274.951C278.776 158.205 282.625 156.28 286.57 153.634C286.45 154.284 286.402 154.909 286.402 155.535V156.184C286.402 157.002 286.763 157.411 287.485 157.411H291.646C292.585 157.411 297.877 151.301 307.548 139.08H308.101C303.458 149.496 301.149 155.607 301.149 157.411V160.346L304.084 160.851H306.369C310.435 160.851 316.689 155.775 325.229 145.623V144.974C325.229 144.252 324.844 143.867 324.051 143.747ZM242.355 149.617H241.873V149.063C243.509 144.805 245.867 141.87 248.898 140.235H250.149L251.207 140.788C251.207 141.726 248.272 144.661 242.355 149.617ZM508.997 272.112C506.64 272.497 505.485 273.075 505.485 273.917C504.715 273.917 502.935 272.906 500.168 270.958C481.597 249.764 463.169 226.02 444.814 199.654C421.792 166.408 406.468 141.87 398.89 125.993L401.176 125.319C410.51 125.319 422.682 123.78 437.694 120.677C449.481 117.309 458.502 113.412 464.805 108.865C482.896 94.4069 491.965 81.2239 491.965 69.3159C491.965 67.3433 491.58 65.0579 490.738 62.3636C487.298 55.2188 481.043 51.6343 471.926 51.6343H468.967C455.207 51.6343 439.498 59.14 421.816 74.1753C411.28 84.0385 403.004 93.2281 397.014 101.744C382.724 122.385 371.129 143.001 362.3 163.618H361.627V163.064C377.384 122.192 391.337 88.4168 403.557 61.69C405.915 61.69 407.07 59.9579 407.07 56.4697C406.516 54.8339 405.939 54.0159 405.289 54.0159H403.557L400.622 54.5692L374.665 114.181C349.55 177.715 336.993 212.091 336.993 217.336C338.148 218.875 338.917 219.621 339.302 219.621H341.01C342.767 219.621 344.138 218.875 345.196 217.336C360.424 180 374.16 150.122 386.429 127.701C396.437 110.501 408.441 94.6234 422.466 80.0451C441.47 63.0852 456.963 54.5692 468.967 54.5692H470.675C480.947 55.6758 486.095 60.2225 486.095 68.2574C486.095 78.5777 478.806 90.5097 464.228 104.126C445.777 116.731 422.177 123.034 393.478 123.034L391.77 124.261L394.729 130.155C414.262 166.047 437.429 200.809 464.228 234.368C484.267 261.888 497.426 276.034 503.753 276.852H507.289C509.406 276.852 510.777 275.889 511.379 273.917C511.379 273.363 510.585 272.738 508.997 272.112ZM361.074 164.291C361.074 164.941 360.689 165.927 359.919 167.226V167.803H360.592C360.592 167.106 360.929 166.119 361.627 164.868V164.291H361.074ZM439.257 123.034C434.927 125.271 432.786 126.643 432.786 127.196C432.786 127.966 433.195 128.351 434.013 128.351H435.745C436.707 128.351 439.089 127.797 442.866 126.619V123.034H439.257ZM888.729 144.396H886.853C878.65 151.541 872.179 155.294 867.415 155.607H866.862C866.862 154.38 867.824 151.589 869.797 147.355C878.481 144.829 882.836 142.496 882.836 140.379C882.836 137.925 881.224 136.554 878 136.217H876.918L872.756 137.444C870.639 139.729 868.907 141.51 867.488 142.833C865.731 143.482 861.449 146.177 854.665 150.964H853.992C855.243 147.836 855.892 145.864 855.892 145.046V142.664C855.387 142.664 853.992 141.919 851.706 140.379C851.706 139.393 852.284 137.588 853.414 134.99C853.414 131.045 851.634 129.096 848.098 129.096H847.545C845.404 129.096 843.623 130.251 842.204 132.609V134.99C843.022 138.599 844.008 140.379 845.163 140.379C844.249 141.967 843.383 143.506 842.541 145.022C834.314 149.809 829.695 152.263 828.757 152.263L827.722 151.685C828.853 147.572 829.43 145.046 829.43 144.06V142.833L826.471 142.183H825.822L824.114 143.41C818.484 150.074 815.357 153.393 814.683 153.393C814.683 152.6 816.44 147.524 819.928 138.19V136.939C819.928 136.289 819.567 135.88 818.869 135.712H816.993C815.116 135.712 812.591 141.63 809.367 153.393C809.367 155.366 809.944 156.545 811.075 156.93H815.261C817.233 156.93 819.759 155.366 822.863 152.263C822.863 154.235 824.282 155.198 827.049 155.198H829.983C832.702 154.933 835.613 153.875 838.716 152.07C834.506 159.985 831.162 166.913 828.684 172.807C828.684 173.529 829.069 173.89 829.839 173.89H833.375C836.599 166.841 841.915 156.81 849.349 143.843L850.48 144.396C850.48 144.998 849.902 147.187 848.748 150.964C848.748 153.297 850.143 154.476 852.933 154.476H853.992C856.422 154.476 859.284 153.321 862.58 151.108C861.931 152.527 861.546 153.875 861.546 155.126C861.546 157.411 862.917 158.566 865.707 158.566H869.172C875.041 158.566 881.922 154.644 889.788 146.778V145.647C889.788 144.926 889.427 144.493 888.729 144.396ZM877.495 139.729L875.041 142.111H874.56C874.704 141.293 875.715 140.475 877.495 139.729ZM848.098 134.99L847.04 134.485C847.04 133.715 847.4 133.306 848.098 133.258V134.99ZM977.017 77.1583H836.575C840.135 69.0032 841.891 64.0956 841.891 62.4117C841.891 61.7381 841.506 61.3772 840.737 61.281H838.932L837.802 61.9065C833.327 72.0824 830.753 77.1583 830.08 77.1583H794.211C792.287 77.1583 791.06 77.7597 790.603 78.9626C790.603 79.7083 791.012 80.0932 791.782 80.0932H829.623L801.982 144.829C793.562 149.761 788.823 152.263 787.909 152.263L786.85 151.685C787.981 147.572 788.558 145.046 788.558 144.06V142.833L785.599 142.183H784.974L783.242 143.41C777.612 150.074 774.461 153.393 773.811 153.393C773.811 152.6 775.568 147.524 779.056 138.19V136.939C779.056 136.289 778.695 135.88 777.997 135.712H776.121C774.726 135.712 772.994 138.936 770.877 145.383C767.003 148.967 763.491 151.325 760.364 152.431C761.543 147.187 762.096 144.42 762.096 144.132C761.446 140.235 760.099 138.262 758.006 138.262L754.494 138.911C752.521 140.403 750.91 142.063 749.562 143.843C747.662 143.843 745.713 144.998 743.693 147.355C703.759 178.797 674.458 194.506 655.814 194.506H651.604C638.301 190.056 631.637 180.433 631.637 165.686C632.022 161.669 633.008 155.943 634.596 148.582C638.036 138.045 643.521 126.45 651.027 113.845C661.9 96.8606 675.877 79.7324 692.885 62.5079C707.656 49.2287 720.646 39.8226 731.881 34.2415C747.277 26.7118 760.821 22.9349 772.512 22.9349C776.121 22.9349 778.647 24.3302 780.114 27.1207V30.633C780.114 33.0868 777.997 38.4033 773.739 46.5344C769.457 49.9744 765.704 54.5211 762.433 60.1022C763.082 61.281 763.708 61.8343 764.309 61.8343H767.845C779.946 47.6891 786.008 37.5132 786.008 31.2825V28.3476C785.31 22.7665 781.991 20 776.121 20H767.845C756.226 20 742.442 24.1137 726.54 32.3651C715.571 37.2245 701.209 48.0259 683.479 64.7933C645.374 106.411 626.297 139.465 626.297 163.954V168.645C626.297 170.498 626.465 172.47 626.802 174.539C631.541 190.272 640.803 198.115 654.587 198.115C663.849 197.633 668.973 196.84 669.959 195.757C679.197 195.204 698.851 184.98 728.946 165.037C736.452 159.023 742.177 154.5 746.122 151.421C745.81 152.888 745.641 154.38 745.641 155.943V156.593C745.641 158.614 746.411 159.961 747.927 160.61H753.243C756.443 158.59 758.006 156.834 758.006 155.366C761.807 155.366 765.44 154.211 768.904 151.95C768.784 152.431 768.639 152.888 768.495 153.393C768.495 155.366 769.048 156.545 770.227 156.93H774.413C776.337 156.93 778.887 155.366 781.991 152.263C781.991 154.235 783.386 155.198 786.176 155.198H789.135C792.263 154.885 795.655 153.538 799.287 151.204L780.547 195.107C780.547 195.949 781.534 196.575 783.482 196.888C785.792 196.888 788.173 194.145 790.603 188.684C790.603 187.433 790.218 186.832 789.4 186.832C819.687 116.395 834.867 80.8149 834.867 80.0932H965.229L966.961 81.3442H969.271C976.416 81.3442 980 80.7668 980 79.6121V77.7357L977.017 77.1583ZM750.886 157.676H750.308V155.943L750.886 150.05C752.642 152.792 753.604 154.139 753.82 154.139C753.339 155.775 752.353 156.954 750.886 157.676ZM756.779 148.823H756.202V146.537H756.779V148.823ZM757.429 145.864H756.779V143.578H757.429V145.864Z"/>
</mask>
<path d="M361.074 164.291C361.074 164.941 360.689 165.927 359.919 167.226V167.803H360.592C360.592 167.106 360.929 166.119 361.627 164.868V164.291H361.074ZM220.415 118.872C238.313 79.8767 247.358 55.315 247.527 45.1872C247.021 40.9051 245.265 38.7882 242.282 38.7882C220.559 38.7882 185.389 65.106 136.746 117.694H82.4748C82.4748 116.515 82.0899 115.913 81.2479 115.913H79.5399C77.014 115.913 74.6564 116.9 72.4192 118.872C72.8522 120.508 74.055 121.302 76.0036 121.302C100.565 120.869 119.426 120.677 132.585 120.677H133.811C132.344 122.77 127.581 128.062 119.57 136.554C86.9253 174.034 56.3013 212.164 27.7221 250.991L26.4953 250.317H23.5363C22.3816 250.317 21.2269 253.493 20 259.844C20 260.637 21.0104 261.215 22.983 261.552C24.2821 261.552 25.6533 260.974 27.1207 259.844C47.9296 231.866 67.5838 206.679 86.0833 184.258C105.954 159.648 124.405 138.454 141.413 120.677H172.109C189.599 120.677 202.926 121.037 212.164 121.807H212.813C203.479 141.774 182.839 184.835 150.916 250.991C150.916 251.688 151.276 252.049 151.998 252.049H156.16C156.978 251.881 157.772 250.919 158.542 249.114L157.868 248.032C198.451 165.734 218.707 123.852 218.707 122.385H223.927C224.769 122.385 225.178 122.024 225.178 121.302V120.677C225.178 119.45 223.566 118.872 220.415 118.872ZM214.545 118.367C183.32 117.525 160.153 117.116 145.022 117.116H144.372C189.526 68.5701 221.738 43.4311 241.055 41.7471L241.609 44.0084C241.609 54.6174 232.588 79.3956 214.545 118.367ZM616.337 68.522C616.337 67.3433 615.904 66.79 615.111 66.79H612.801L611.598 67.2711C606.883 78.289 601.182 90.2932 594.47 103.212C590.068 112.834 583.789 124.261 575.73 137.516H575.056C573.036 135.544 571.304 134.581 569.836 134.581H569.163L566.228 135.062C563.557 137.973 561.416 140.668 559.708 143.193C557.639 144.132 553.574 146.754 547.464 151.036H546.838C548.065 147.909 548.714 145.936 548.714 145.142V142.76C548.209 142.76 546.838 142.015 544.529 140.451C544.529 139.489 545.106 137.685 546.237 135.062C546.237 131.141 544.481 129.169 540.92 129.169H540.343C538.226 129.169 536.47 130.347 535.026 132.705V135.062C535.844 138.647 536.831 140.451 537.985 140.451C537.312 141.63 536.686 142.76 536.061 143.891C529.349 148.678 523.864 152.191 519.654 154.476H519.149C519.149 151.084 521.507 143.963 526.173 133.186V132.609C526.173 131.935 525.813 131.526 525.043 131.382H523.239C522.637 131.382 520.857 133.186 517.922 136.794C516.888 136.794 515.492 136.578 513.736 136.121C511.932 136.121 509.983 136.722 507.866 137.853C505.341 139.417 503.392 141.101 501.949 142.833C495.934 148.63 491.652 152.311 489.102 153.802C490.185 149.665 491.604 145.551 493.288 141.461C492.951 139.489 492.35 138.502 491.484 138.502H489.776C485.398 138.502 480.851 142.424 476.088 150.29C476.521 148.871 476.737 148.077 476.737 147.909C492.855 107.806 501.107 86.5885 501.54 84.2309V83.1003C501.275 82.2583 500.289 81.4885 498.605 80.7909C497.835 80.7909 496.873 81.1517 495.646 81.8493L496.223 84.8083C485.229 112.137 477.531 131.983 473.057 144.372C472.576 144.469 472.143 144.637 471.758 144.877C460.571 154.284 453.282 158.975 449.89 158.975H448.182C448.182 158.59 447.99 157.988 447.605 157.17C451.574 145.744 456.073 140.066 461.125 140.066C461.125 141.149 460.74 142.327 459.946 143.675C459.946 144.469 460.331 144.877 461.125 144.877H464.06C465.07 144.877 465.864 143.506 466.345 140.716C466.345 138.599 464.613 137.179 461.125 136.554C456.121 136.554 451.887 139.104 448.302 144.228C442.048 148.847 436.395 152.527 431.222 155.27V152.335C435.144 143.001 437.116 137.685 437.116 136.386V135.808C436.563 134.653 436.01 134.076 435.408 134.076H433.099L431.222 135.303C431.222 135.64 431.439 136.217 431.872 137.011C427.494 146.85 425.353 153.153 425.353 155.943C425.353 158.253 426.531 159.384 428.937 159.384H430.741C435.071 158.036 439.474 155.751 443.924 152.551C443.371 153.995 442.818 155.535 442.264 157.17C442.264 160.009 444.237 161.813 448.182 162.559C454.341 162.559 461.846 158.758 470.651 151.276C470.001 153.225 469.472 154.909 469.135 156.184V156.737C469.352 157.916 470.507 158.469 472.648 158.469H473.802C476.569 158.469 480.707 153.778 486.167 144.396H486.817C484.844 148.823 483.858 151.95 483.858 153.802V156.184C484.411 157.339 484.989 157.916 485.59 157.916H490.834C492.903 156.906 495.622 154.789 498.99 151.613V151.998C499.326 153.201 500.553 153.802 502.598 153.802H503.849C507.457 153.802 510.97 151.421 514.41 146.682H514.987V147.355C514.145 148.871 513.736 151.036 513.736 153.802V154.476C513.736 156.737 514.963 157.916 517.345 157.916H519.149C522.18 157.916 526.294 156.016 531.418 152.335C527.28 160.129 523.96 167.034 521.531 172.879C521.531 173.601 521.915 173.962 522.661 173.962H526.173C529.397 166.913 534.738 156.882 542.147 143.915L543.302 144.468C543.302 145.07 542.724 147.259 541.594 151.036C541.594 153.369 542.965 154.548 545.755 154.548H546.838C549.316 154.548 552.299 153.345 555.787 150.964C555.378 152.215 555.138 153.418 555.089 154.548V155.198C555.089 155.919 555.45 156.28 556.172 156.28H560.334C561.801 156.28 563.99 155.27 566.901 153.321C570.846 149.376 573.83 147.427 575.73 147.427C575.73 144.926 577.486 141.774 580.974 138.021C567.19 169.319 560.334 186.038 560.334 188.107C560.598 189.31 561.801 189.911 563.918 189.911H564.423L566.228 188.684C566.228 188.3 566.035 187.722 565.65 186.952L616.337 68.522ZM504.908 149.617H504.402V149.063C506.062 144.805 508.396 141.87 511.475 140.235H512.678L513.736 140.788C513.736 141.726 510.801 144.661 504.908 149.617ZM540.92 135.062L539.862 134.581C539.862 133.811 540.198 133.378 540.92 133.33V135.062ZM570.895 142.76C568.441 146.802 565.145 149.953 560.983 152.263C562.018 147.981 564.76 143.434 569.163 138.599C569.932 138.599 570.51 139.777 570.895 142.183V142.76ZM283.467 123.034C279.137 125.271 276.996 126.643 276.996 127.196C276.996 127.966 277.405 128.351 278.223 128.351H279.931C280.917 128.351 283.299 127.797 287.052 126.619V123.034H283.467ZM324.051 143.747H321.116C312.287 152.431 307.379 156.737 306.369 156.737C311.084 145.936 313.418 139.657 313.418 137.853V135.544C312.84 134.413 312.263 133.836 311.71 133.836H309.352C306.369 133.836 302.279 137.348 296.963 144.396H296.313L296.963 143.169V142.039C296.963 141.317 296.578 140.908 295.736 140.788H294.028C292.2 142.688 290.756 144.541 289.577 146.345C284.478 149.953 279.762 152.96 275.456 155.27V152.335C279.353 143.001 281.326 137.685 281.326 136.386V135.808C280.797 134.653 280.22 134.076 279.618 134.076H277.309L275.456 135.303C275.456 135.64 275.649 136.217 276.082 137.011C274.903 139.681 273.893 142.087 273.051 144.204C266.531 148.823 261.191 152.263 257.101 154.476H256.62C256.62 151.084 258.954 143.963 263.645 133.186V132.609C263.645 131.935 263.26 131.526 262.514 131.382H260.71C260.108 131.382 258.328 133.186 255.393 136.794C254.335 136.794 252.939 136.578 251.207 136.121C249.403 136.121 247.43 136.722 245.313 137.853C241.104 140.499 238.409 143.386 237.206 146.489C226.958 158.518 220.872 164.532 218.948 164.532H218.274C218.274 164.195 218.154 163.618 217.817 162.824C218.154 154.043 228.546 127.1 248.994 82.0177C256.019 67.1508 259.555 59.3084 259.555 58.4183C265.882 48.94 270.044 41.266 271.992 35.4202C271.992 33.9047 271.439 33.1349 270.26 33.1349H269.057L266.122 33.7122C230.735 108.312 213.054 150.964 213.054 161.597V164.026C213.054 166.721 214.449 168.044 217.239 168.044C223.013 168.044 229.869 163.184 237.784 153.418C238.361 153.658 239.131 153.802 240.069 153.802H241.32C244.905 153.802 248.441 151.421 251.857 146.682H252.434V147.355C251.616 148.871 251.207 151.036 251.207 153.802V154.476C251.207 156.737 252.386 157.916 254.816 157.916H256.62C259.94 157.916 264.607 155.655 270.501 151.156C269.875 153.273 269.538 154.861 269.538 155.943C269.538 158.253 270.741 159.384 273.147 159.384H274.951C278.776 158.205 282.625 156.28 286.57 153.634C286.45 154.284 286.402 154.909 286.402 155.535V156.184C286.402 157.002 286.763 157.411 287.485 157.411H291.646C292.585 157.411 297.877 151.301 307.548 139.08H308.101C303.458 149.496 301.149 155.607 301.149 157.411V160.346L304.084 160.851H306.369C310.435 160.851 316.689 155.775 325.229 145.623V144.974C325.229 144.252 324.844 143.867 324.051 143.747ZM242.355 149.617H241.873V149.063C243.509 144.805 245.867 141.87 248.898 140.235H250.149L251.207 140.788C251.207 141.726 248.272 144.661 242.355 149.617ZM508.997 272.112C506.64 272.497 505.485 273.075 505.485 273.917C504.715 273.917 502.935 272.906 500.168 270.958C481.597 249.764 463.169 226.02 444.814 199.654C421.792 166.408 406.468 141.87 398.89 125.993L401.176 125.319C410.51 125.319 422.682 123.78 437.694 120.677C449.481 117.309 458.502 113.412 464.805 108.865C482.896 94.4069 491.965 81.2239 491.965 69.3159C491.965 67.3433 491.58 65.0579 490.738 62.3636C487.298 55.2188 481.043 51.6343 471.926 51.6343H468.967C455.207 51.6343 439.498 59.14 421.816 74.1753C411.28 84.0385 403.004 93.2281 397.014 101.744C382.724 122.385 371.129 143.001 362.3 163.618H361.627V163.064C377.384 122.192 391.337 88.4168 403.557 61.69C405.915 61.69 407.07 59.9579 407.07 56.4697C406.516 54.8339 405.939 54.0159 405.289 54.0159H403.557L400.622 54.5692L374.665 114.181C349.55 177.715 336.993 212.091 336.993 217.336C338.148 218.875 338.917 219.621 339.302 219.621H341.01C342.767 219.621 344.138 218.875 345.196 217.336C360.424 180 374.16 150.122 386.429 127.701C396.437 110.501 408.441 94.6234 422.466 80.0451C441.47 63.0852 456.963 54.5692 468.967 54.5692H470.675C480.947 55.6758 486.095 60.2225 486.095 68.2574C486.095 78.5777 478.806 90.5097 464.228 104.126C445.777 116.731 422.177 123.034 393.478 123.034L391.77 124.261L394.729 130.155C414.262 166.047 437.429 200.809 464.228 234.368C484.267 261.888 497.426 276.034 503.753 276.852H507.289C509.406 276.852 510.777 275.889 511.379 273.917C511.379 273.363 510.585 272.738 508.997 272.112ZM361.074 164.291C361.074 164.941 360.689 165.927 359.919 167.226V167.803H360.592C360.592 167.106 360.929 166.119 361.627 164.868V164.291H361.074ZM439.257 123.034C434.927 125.271 432.786 126.643 432.786 127.196C432.786 127.966 433.195 128.351 434.013 128.351H435.745C436.707 128.351 439.089 127.797 442.866 126.619V123.034H439.257ZM888.729 144.396H886.853C878.65 151.541 872.179 155.294 867.415 155.607H866.862C866.862 154.38 867.824 151.589 869.797 147.355C878.481 144.829 882.836 142.496 882.836 140.379C882.836 137.925 881.224 136.554 878 136.217H876.918L872.756 137.444C870.639 139.729 868.907 141.51 867.488 142.833C865.731 143.482 861.449 146.177 854.665 150.964H853.992C855.243 147.836 855.892 145.864 855.892 145.046V142.664C855.387 142.664 853.992 141.919 851.706 140.379C851.706 139.393 852.284 137.588 853.414 134.99C853.414 131.045 851.634 129.096 848.098 129.096H847.545C845.404 129.096 843.623 130.251 842.204 132.609V134.99C843.022 138.599 844.008 140.379 845.163 140.379C844.249 141.967 843.383 143.506 842.541 145.022C834.314 149.809 829.695 152.263 828.757 152.263L827.722 151.685C828.853 147.572 829.43 145.046 829.43 144.06V142.833L826.471 142.183H825.822L824.114 143.41C818.484 150.074 815.357 153.393 814.683 153.393C814.683 152.6 816.44 147.524 819.928 138.19V136.939C819.928 136.289 819.567 135.88 818.869 135.712H816.993C815.116 135.712 812.591 141.63 809.367 153.393C809.367 155.366 809.944 156.545 811.075 156.93H815.261C817.233 156.93 819.759 155.366 822.863 152.263C822.863 154.235 824.282 155.198 827.049 155.198H829.983C832.702 154.933 835.613 153.875 838.716 152.07C834.506 159.985 831.162 166.913 828.684 172.807C828.684 173.529 829.069 173.89 829.839 173.89H833.375C836.599 166.841 841.915 156.81 849.349 143.843L850.48 144.396C850.48 144.998 849.902 147.187 848.748 150.964C848.748 153.297 850.143 154.476 852.933 154.476H853.992C856.422 154.476 859.284 153.321 862.58 151.108C861.931 152.527 861.546 153.875 861.546 155.126C861.546 157.411 862.917 158.566 865.707 158.566H869.172C875.041 158.566 881.922 154.644 889.788 146.778V145.647C889.788 144.926 889.427 144.493 888.729 144.396ZM877.495 139.729L875.041 142.111H874.56C874.704 141.293 875.715 140.475 877.495 139.729ZM848.098 134.99L847.04 134.485C847.04 133.715 847.4 133.306 848.098 133.258V134.99ZM977.017 77.1583H836.575C840.135 69.0032 841.891 64.0956 841.891 62.4117C841.891 61.7381 841.506 61.3772 840.737 61.281H838.932L837.802 61.9065C833.327 72.0824 830.753 77.1583 830.08 77.1583H794.211C792.287 77.1583 791.06 77.7597 790.603 78.9626C790.603 79.7083 791.012 80.0932 791.782 80.0932H829.623L801.982 144.829C793.562 149.761 788.823 152.263 787.909 152.263L786.85 151.685C787.981 147.572 788.558 145.046 788.558 144.06V142.833L785.599 142.183H784.974L783.242 143.41C777.612 150.074 774.461 153.393 773.811 153.393C773.811 152.6 775.568 147.524 779.056 138.19V136.939C779.056 136.289 778.695 135.88 777.997 135.712H776.121C774.726 135.712 772.994 138.936 770.877 145.383C767.003 148.967 763.491 151.325 760.364 152.431C761.543 147.187 762.096 144.42 762.096 144.132C761.446 140.235 760.099 138.262 758.006 138.262L754.494 138.911C752.521 140.403 750.91 142.063 749.562 143.843C747.662 143.843 745.713 144.998 743.693 147.355C703.759 178.797 674.458 194.506 655.814 194.506H651.604C638.301 190.056 631.637 180.433 631.637 165.686C632.022 161.669 633.008 155.943 634.596 148.582C638.036 138.045 643.521 126.45 651.027 113.845C661.9 96.8606 675.877 79.7324 692.885 62.5079C707.656 49.2287 720.646 39.8226 731.881 34.2415C747.277 26.7118 760.821 22.9349 772.512 22.9349C776.121 22.9349 778.647 24.3302 780.114 27.1207V30.633C780.114 33.0868 777.997 38.4033 773.739 46.5344C769.457 49.9744 765.704 54.5211 762.433 60.1022C763.082 61.281 763.708 61.8343 764.309 61.8343H767.845C779.946 47.6891 786.008 37.5132 786.008 31.2825V28.3476C785.31 22.7665 781.991 20 776.121 20H767.845C756.226 20 742.442 24.1137 726.54 32.3651C715.571 37.2245 701.209 48.0259 683.479 64.7933C645.374 106.411 626.297 139.465 626.297 163.954V168.645C626.297 170.498 626.465 172.47 626.802 174.539C631.541 190.272 640.803 198.115 654.587 198.115C663.849 197.633 668.973 196.84 669.959 195.757C679.197 195.204 698.851 184.98 728.946 165.037C736.452 159.023 742.177 154.5 746.122 151.421C745.81 152.888 745.641 154.38 745.641 155.943V156.593C745.641 158.614 746.411 159.961 747.927 160.61H753.243C756.443 158.59 758.006 156.834 758.006 155.366C761.807 155.366 765.44 154.211 768.904 151.95C768.784 152.431 768.639 152.888 768.495 153.393C768.495 155.366 769.048 156.545 770.227 156.93H774.413C776.337 156.93 778.887 155.366 781.991 152.263C781.991 154.235 783.386 155.198 786.176 155.198H789.135C792.263 154.885 795.655 153.538 799.287 151.204L780.547 195.107C780.547 195.949 781.534 196.575 783.482 196.888C785.792 196.888 788.173 194.145 790.603 188.684C790.603 187.433 790.218 186.832 789.4 186.832C819.687 116.395 834.867 80.8149 834.867 80.0932H965.229L966.961 81.3442H969.271C976.416 81.3442 980 80.7668 980 79.6121V77.7357L977.017 77.1583ZM750.886 157.676H750.308V155.943L750.886 150.05C752.642 152.792 753.604 154.139 753.82 154.139C753.339 155.775 752.353 156.954 750.886 157.676ZM756.779 148.823H756.202V146.537H756.779V148.823ZM757.429 145.864H756.779V143.578H757.429V145.864Z" fill="#D42316"/>
<path d="M361.074 164.291C361.074 164.941 360.689 165.927 359.919 167.226V167.803H360.592C360.592 167.106 360.929 166.119 361.627 164.868V164.291H361.074ZM220.415 118.872C238.313 79.8767 247.358 55.315 247.527 45.1872C247.021 40.9051 245.265 38.7882 242.282 38.7882C220.559 38.7882 185.389 65.106 136.746 117.694H82.4748C82.4748 116.515 82.0899 115.913 81.2479 115.913H79.5399C77.014 115.913 74.6564 116.9 72.4192 118.872C72.8522 120.508 74.055 121.302 76.0036 121.302C100.565 120.869 119.426 120.677 132.585 120.677H133.811C132.344 122.77 127.581 128.062 119.57 136.554C86.9253 174.034 56.3013 212.164 27.7221 250.991L26.4953 250.317H23.5363C22.3816 250.317 21.2269 253.493 20 259.844C20 260.637 21.0104 261.215 22.983 261.552C24.2821 261.552 25.6533 260.974 27.1207 259.844C47.9296 231.866 67.5838 206.679 86.0833 184.258C105.954 159.648 124.405 138.454 141.413 120.677H172.109C189.599 120.677 202.926 121.037 212.164 121.807H212.813C203.479 141.774 182.839 184.835 150.916 250.991C150.916 251.688 151.276 252.049 151.998 252.049H156.16C156.978 251.881 157.772 250.919 158.542 249.114L157.868 248.032C198.451 165.734 218.707 123.852 218.707 122.385H223.927C224.769 122.385 225.178 122.024 225.178 121.302V120.677C225.178 119.45 223.566 118.872 220.415 118.872ZM214.545 118.367C183.32 117.525 160.153 117.116 145.022 117.116H144.372C189.526 68.5701 221.738 43.4311 241.055 41.7471L241.609 44.0084C241.609 54.6174 232.588 79.3956 214.545 118.367ZM616.337 68.522C616.337 67.3433 615.904 66.79 615.111 66.79H612.801L611.598 67.2711C606.883 78.289 601.182 90.2932 594.47 103.212C590.068 112.834 583.789 124.261 575.73 137.516H575.056C573.036 135.544 571.304 134.581 569.836 134.581H569.163L566.228 135.062C563.557 137.973 561.416 140.668 559.708 143.193C557.639 144.132 553.574 146.754 547.464 151.036H546.838C548.065 147.909 548.714 145.936 548.714 145.142V142.76C548.209 142.76 546.838 142.015 544.529 140.451C544.529 139.489 545.106 137.685 546.237 135.062C546.237 131.141 544.481 129.169 540.92 129.169H540.343C538.226 129.169 536.47 130.347 535.026 132.705V135.062C535.844 138.647 536.831 140.451 537.985 140.451C537.312 141.63 536.686 142.76 536.061 143.891C529.349 148.678 523.864 152.191 519.654 154.476H519.149C519.149 151.084 521.507 143.963 526.173 133.186V132.609C526.173 131.935 525.813 131.526 525.043 131.382H523.239C522.637 131.382 520.857 133.186 517.922 136.794C516.888 136.794 515.492 136.578 513.736 136.121C511.932 136.121 509.983 136.722 507.866 137.853C505.341 139.417 503.392 141.101 501.949 142.833C495.934 148.63 491.652 152.311 489.102 153.802C490.185 149.665 491.604 145.551 493.288 141.461C492.951 139.489 492.35 138.502 491.484 138.502H489.776C485.398 138.502 480.851 142.424 476.088 150.29C476.521 148.871 476.737 148.077 476.737 147.909C492.855 107.806 501.107 86.5885 501.54 84.2309V83.1003C501.275 82.2583 500.289 81.4885 498.605 80.7909C497.835 80.7909 496.873 81.1517 495.646 81.8493L496.223 84.8083C485.229 112.137 477.531 131.983 473.057 144.372C472.576 144.469 472.143 144.637 471.758 144.877C460.571 154.284 453.282 158.975 449.89 158.975H448.182C448.182 158.59 447.99 157.988 447.605 157.17C451.574 145.744 456.073 140.066 461.125 140.066C461.125 141.149 460.74 142.327 459.946 143.675C459.946 144.469 460.331 144.877 461.125 144.877H464.06C465.07 144.877 465.864 143.506 466.345 140.716C466.345 138.599 464.613 137.179 461.125 136.554C456.121 136.554 451.887 139.104 448.302 144.228C442.048 148.847 436.395 152.527 431.222 155.27V152.335C435.144 143.001 437.116 137.685 437.116 136.386V135.808C436.563 134.653 436.01 134.076 435.408 134.076H433.099L431.222 135.303C431.222 135.64 431.439 136.217 431.872 137.011C427.494 146.85 425.353 153.153 425.353 155.943C425.353 158.253 426.531 159.384 428.937 159.384H430.741C435.071 158.036 439.474 155.751 443.924 152.551C443.371 153.995 442.818 155.535 442.264 157.17C442.264 160.009 444.237 161.813 448.182 162.559C454.341 162.559 461.846 158.758 470.651 151.276C470.001 153.225 469.472 154.909 469.135 156.184V156.737C469.352 157.916 470.507 158.469 472.648 158.469H473.802C476.569 158.469 480.707 153.778 486.167 144.396H486.817C484.844 148.823 483.858 151.95 483.858 153.802V156.184C484.411 157.339 484.989 157.916 485.59 157.916H490.834C492.903 156.906 495.622 154.789 498.99 151.613V151.998C499.326 153.201 500.553 153.802 502.598 153.802H503.849C507.457 153.802 510.97 151.421 514.41 146.682H514.987V147.355C514.145 148.871 513.736 151.036 513.736 153.802V154.476C513.736 156.737 514.963 157.916 517.345 157.916H519.149C522.18 157.916 526.294 156.016 531.418 152.335C527.28 160.129 523.96 167.034 521.531 172.879C521.531 173.601 521.915 173.962 522.661 173.962H526.173C529.397 166.913 534.738 156.882 542.147 143.915L543.302 144.468C543.302 145.07 542.724 147.259 541.594 151.036C541.594 153.369 542.965 154.548 545.755 154.548H546.838C549.316 154.548 552.299 153.345 555.787 150.964C555.378 152.215 555.138 153.418 555.089 154.548V155.198C555.089 155.919 555.45 156.28 556.172 156.28H560.334C561.801 156.28 563.99 155.27 566.901 153.321C570.846 149.376 573.83 147.427 575.73 147.427C575.73 144.926 577.486 141.774 580.974 138.021C567.19 169.319 560.334 186.038 560.334 188.107C560.598 189.31 561.801 189.911 563.918 189.911H564.423L566.228 188.684C566.228 188.3 566.035 187.722 565.65 186.952L616.337 68.522ZM504.908 149.617H504.402V149.063C506.062 144.805 508.396 141.87 511.475 140.235H512.678L513.736 140.788C513.736 141.726 510.801 144.661 504.908 149.617ZM540.92 135.062L539.862 134.581C539.862 133.811 540.198 133.378 540.92 133.33V135.062ZM570.895 142.76C568.441 146.802 565.145 149.953 560.983 152.263C562.018 147.981 564.76 143.434 569.163 138.599C569.932 138.599 570.51 139.777 570.895 142.183V142.76ZM283.467 123.034C279.137 125.271 276.996 126.643 276.996 127.196C276.996 127.966 277.405 128.351 278.223 128.351H279.931C280.917 128.351 283.299 127.797 287.052 126.619V123.034H283.467ZM324.051 143.747H321.116C312.287 152.431 307.379 156.737 306.369 156.737C311.084 145.936 313.418 139.657 313.418 137.853V135.544C312.84 134.413 312.263 133.836 311.71 133.836H309.352C306.369 133.836 302.279 137.348 296.963 144.396H296.313L296.963 143.169V142.039C296.963 141.317 296.578 140.908 295.736 140.788H294.028C292.2 142.688 290.756 144.541 289.577 146.345C284.478 149.953 279.762 152.96 275.456 155.27V152.335C279.353 143.001 281.326 137.685 281.326 136.386V135.808C280.797 134.653 280.22 134.076 279.618 134.076H277.309L275.456 135.303C275.456 135.64 275.649 136.217 276.082 137.011C274.903 139.681 273.893 142.087 273.051 144.204C266.531 148.823 261.191 152.263 257.101 154.476H256.62C256.62 151.084 258.954 143.963 263.645 133.186V132.609C263.645 131.935 263.26 131.526 262.514 131.382H260.71C260.108 131.382 258.328 133.186 255.393 136.794C254.335 136.794 252.939 136.578 251.207 136.121C249.403 136.121 247.43 136.722 245.313 137.853C241.104 140.499 238.409 143.386 237.206 146.489C226.958 158.518 220.872 164.532 218.948 164.532H218.274C218.274 164.195 218.154 163.618 217.817 162.824C218.154 154.043 228.546 127.1 248.994 82.0177C256.019 67.1508 259.555 59.3084 259.555 58.4183C265.882 48.94 270.044 41.266 271.992 35.4202C271.992 33.9047 271.439 33.1349 270.26 33.1349H269.057L266.122 33.7122C230.735 108.312 213.054 150.964 213.054 161.597V164.026C213.054 166.721 214.449 168.044 217.239 168.044C223.013 168.044 229.869 163.184 237.784 153.418C238.361 153.658 239.131 153.802 240.069 153.802H241.32C244.905 153.802 248.441 151.421 251.857 146.682H252.434V147.355C251.616 148.871 251.207 151.036 251.207 153.802V154.476C251.207 156.737 252.386 157.916 254.816 157.916H256.62C259.94 157.916 264.607 155.655 270.501 151.156C269.875 153.273 269.538 154.861 269.538 155.943C269.538 158.253 270.741 159.384 273.147 159.384H274.951C278.776 158.205 282.625 156.28 286.57 153.634C286.45 154.284 286.402 154.909 286.402 155.535V156.184C286.402 157.002 286.763 157.411 287.485 157.411H291.646C292.585 157.411 297.877 151.301 307.548 139.08H308.101C303.458 149.496 301.149 155.607 301.149 157.411V160.346L304.084 160.851H306.369C310.435 160.851 316.689 155.775 325.229 145.623V144.974C325.229 144.252 324.844 143.867 324.051 143.747ZM242.355 149.617H241.873V149.063C243.509 144.805 245.867 141.87 248.898 140.235H250.149L251.207 140.788C251.207 141.726 248.272 144.661 242.355 149.617ZM508.997 272.112C506.64 272.497 505.485 273.075 505.485 273.917C504.715 273.917 502.935 272.906 500.168 270.958C481.597 249.764 463.169 226.02 444.814 199.654C421.792 166.408 406.468 141.87 398.89 125.993L401.176 125.319C410.51 125.319 422.682 123.78 437.694 120.677C449.481 117.309 458.502 113.412 464.805 108.865C482.896 94.4069 491.965 81.2239 491.965 69.3159C491.965 67.3433 491.58 65.0579 490.738 62.3636C487.298 55.2188 481.043 51.6343 471.926 51.6343H468.967C455.207 51.6343 439.498 59.14 421.816 74.1753C411.28 84.0385 403.004 93.2281 397.014 101.744C382.724 122.385 371.129 143.001 362.3 163.618H361.627V163.064C377.384 122.192 391.337 88.4168 403.557 61.69C405.915 61.69 407.07 59.9579 407.07 56.4697C406.516 54.8339 405.939 54.0159 405.289 54.0159H403.557L400.622 54.5692L374.665 114.181C349.55 177.715 336.993 212.091 336.993 217.336C338.148 218.875 338.917 219.621 339.302 219.621H341.01C342.767 219.621 344.138 218.875 345.196 217.336C360.424 180 374.16 150.122 386.429 127.701C396.437 110.501 408.441 94.6234 422.466 80.0451C441.47 63.0852 456.963 54.5692 468.967 54.5692H470.675C480.947 55.6758 486.095 60.2225 486.095 68.2574C486.095 78.5777 478.806 90.5097 464.228 104.126C445.777 116.731 422.177 123.034 393.478 123.034L391.77 124.261L394.729 130.155C414.262 166.047 437.429 200.809 464.228 234.368C484.267 261.888 497.426 276.034 503.753 276.852H507.289C509.406 276.852 510.777 275.889 511.379 273.917C511.379 273.363 510.585 272.738 508.997 272.112ZM361.074 164.291C361.074 164.941 360.689 165.927 359.919 167.226V167.803H360.592C360.592 167.106 360.929 166.119 361.627 164.868V164.291H361.074ZM439.257 123.034C434.927 125.271 432.786 126.643 432.786 127.196C432.786 127.966 433.195 128.351 434.013 128.351H435.745C436.707 128.351 439.089 127.797 442.866 126.619V123.034H439.257ZM888.729 144.396H886.853C878.65 151.541 872.179 155.294 867.415 155.607H866.862C866.862 154.38 867.824 151.589 869.797 147.355C878.481 144.829 882.836 142.496 882.836 140.379C882.836 137.925 881.224 136.554 878 136.217H876.918L872.756 137.444C870.639 139.729 868.907 141.51 867.488 142.833C865.731 143.482 861.449 146.177 854.665 150.964H853.992C855.243 147.836 855.892 145.864 855.892 145.046V142.664C855.387 142.664 853.992 141.919 851.706 140.379C851.706 139.393 852.284 137.588 853.414 134.99C853.414 131.045 851.634 129.096 848.098 129.096H847.545C845.404 129.096 843.623 130.251 842.204 132.609V134.99C843.022 138.599 844.008 140.379 845.163 140.379C844.249 141.967 843.383 143.506 842.541 145.022C834.314 149.809 829.695 152.263 828.757 152.263L827.722 151.685C828.853 147.572 829.43 145.046 829.43 144.06V142.833L826.471 142.183H825.822L824.114 143.41C818.484 150.074 815.357 153.393 814.683 153.393C814.683 152.6 816.44 147.524 819.928 138.19V136.939C819.928 136.289 819.567 135.88 818.869 135.712H816.993C815.116 135.712 812.591 141.63 809.367 153.393C809.367 155.366 809.944 156.545 811.075 156.93H815.261C817.233 156.93 819.759 155.366 822.863 152.263C822.863 154.235 824.282 155.198 827.049 155.198H829.983C832.702 154.933 835.613 153.875 838.716 152.07C834.506 159.985 831.162 166.913 828.684 172.807C828.684 173.529 829.069 173.89 829.839 173.89H833.375C836.599 166.841 841.915 156.81 849.349 143.843L850.48 144.396C850.48 144.998 849.902 147.187 848.748 150.964C848.748 153.297 850.143 154.476 852.933 154.476H853.992C856.422 154.476 859.284 153.321 862.58 151.108C861.931 152.527 861.546 153.875 861.546 155.126C861.546 157.411 862.917 158.566 865.707 158.566H869.172C875.041 158.566 881.922 154.644 889.788 146.778V145.647C889.788 144.926 889.427 144.493 888.729 144.396ZM877.495 139.729L875.041 142.111H874.56C874.704 141.293 875.715 140.475 877.495 139.729ZM848.098 134.99L847.04 134.485C847.04 133.715 847.4 133.306 848.098 133.258V134.99ZM977.017 77.1583H836.575C840.135 69.0032 841.891 64.0956 841.891 62.4117C841.891 61.7381 841.506 61.3772 840.737 61.281H838.932L837.802 61.9065C833.327 72.0824 830.753 77.1583 830.08 77.1583H794.211C792.287 77.1583 791.06 77.7597 790.603 78.9626C790.603 79.7083 791.012 80.0932 791.782 80.0932H829.623L801.982 144.829C793.562 149.761 788.823 152.263 787.909 152.263L786.85 151.685C787.981 147.572 788.558 145.046 788.558 144.06V142.833L785.599 142.183H784.974L783.242 143.41C777.612 150.074 774.461 153.393 773.811 153.393C773.811 152.6 775.568 147.524 779.056 138.19V136.939C779.056 136.289 778.695 135.88 777.997 135.712H776.121C774.726 135.712 772.994 138.936 770.877 145.383C767.003 148.967 763.491 151.325 760.364 152.431C761.543 147.187 762.096 144.42 762.096 144.132C761.446 140.235 760.099 138.262 758.006 138.262L754.494 138.911C752.521 140.403 750.91 142.063 749.562 143.843C747.662 143.843 745.713 144.998 743.693 147.355C703.759 178.797 674.458 194.506 655.814 194.506H651.604C638.301 190.056 631.637 180.433 631.637 165.686C632.022 161.669 633.008 155.943 634.596 148.582C638.036 138.045 643.521 126.45 651.027 113.845C661.9 96.8606 675.877 79.7324 692.885 62.5079C707.656 49.2287 720.646 39.8226 731.881 34.2415C747.277 26.7118 760.821 22.9349 772.512 22.9349C776.121 22.9349 778.647 24.3302 780.114 27.1207V30.633C780.114 33.0868 777.997 38.4033 773.739 46.5344C769.457 49.9744 765.704 54.5211 762.433 60.1022C763.082 61.281 763.708 61.8343 764.309 61.8343H767.845C779.946 47.6891 786.008 37.5132 786.008 31.2825V28.3476C785.31 22.7665 781.991 20 776.121 20H767.845C756.226 20 742.442 24.1137 726.54 32.3651C715.571 37.2245 701.209 48.0259 683.479 64.7933C645.374 106.411 626.297 139.465 626.297 163.954V168.645C626.297 170.498 626.465 172.47 626.802 174.539C631.541 190.272 640.803 198.115 654.587 198.115C663.849 197.633 668.973 196.84 669.959 195.757C679.197 195.204 698.851 184.98 728.946 165.037C736.452 159.023 742.177 154.5 746.122 151.421C745.81 152.888 745.641 154.38 745.641 155.943V156.593C745.641 158.614 746.411 159.961 747.927 160.61H753.243C756.443 158.59 758.006 156.834 758.006 155.366C761.807 155.366 765.44 154.211 768.904 151.95C768.784 152.431 768.639 152.888 768.495 153.393C768.495 155.366 769.048 156.545 770.227 156.93H774.413C776.337 156.93 778.887 155.366 781.991 152.263C781.991 154.235 783.386 155.198 786.176 155.198H789.135C792.263 154.885 795.655 153.538 799.287 151.204L780.547 195.107C780.547 195.949 781.534 196.575 783.482 196.888C785.792 196.888 788.173 194.145 790.603 188.684C790.603 187.433 790.218 186.832 789.4 186.832C819.687 116.395 834.867 80.8149 834.867 80.0932H965.229L966.961 81.3442H969.271C976.416 81.3442 980 80.7668 980 79.6121V77.7357L977.017 77.1583ZM750.886 157.676H750.308V155.943L750.886 150.05C752.642 152.792 753.604 154.139 753.82 154.139C753.339 155.775 752.353 156.954 750.886 157.676ZM756.779 148.823H756.202V146.537H756.779V148.823ZM757.429 145.864H756.779V143.578H757.429V145.864Z" stroke="#D42316" stroke-width="22" mask="url(#path-1-outside-1_3_149)"/>
</g>
<g filter="url(#filter1_d_3_149)">
<path d="M361.074 164.291C361.074 164.941 360.689 165.927 359.919 167.226V167.803H360.592C360.592 167.106 360.929 166.119 361.627 164.868V164.291H361.074ZM220.415 118.872C238.313 79.8767 247.358 55.315 247.527 45.1872C247.021 40.9051 245.265 38.7882 242.282 38.7882C220.559 38.7882 185.389 65.106 136.746 117.694H82.4748C82.4748 116.515 82.0899 115.913 81.2479 115.913H79.5399C77.014 115.913 74.6564 116.9 72.4192 118.872C72.8522 120.508 74.055 121.302 76.0036 121.302C100.565 120.869 119.426 120.677 132.585 120.677H133.811C132.344 122.77 127.581 128.062 119.57 136.554C86.9253 174.034 56.3013 212.164 27.7221 250.991L26.4953 250.317H23.5363C22.3816 250.317 21.2269 253.493 20 259.844C20 260.637 21.0104 261.215 22.983 261.552C24.2821 261.552 25.6533 260.974 27.1207 259.844C47.9296 231.866 67.5838 206.679 86.0833 184.258C105.954 159.648 124.405 138.454 141.413 120.677H172.109C189.599 120.677 202.926 121.037 212.164 121.807H212.813C203.479 141.774 182.839 184.835 150.916 250.991C150.916 251.688 151.276 252.049 151.998 252.049H156.16C156.978 251.881 157.772 250.919 158.542 249.114L157.868 248.032C198.451 165.734 218.707 123.852 218.707 122.385H223.927C224.769 122.385 225.178 122.024 225.178 121.302V120.677C225.178 119.45 223.566 118.872 220.415 118.872ZM214.545 118.367C183.32 117.525 160.153 117.116 145.022 117.116H144.372C189.526 68.5701 221.738 43.4311 241.055 41.7471L241.609 44.0084C241.609 54.6174 232.588 79.3956 214.545 118.367ZM616.337 68.522C616.337 67.3433 615.904 66.79 615.111 66.79H612.801L611.598 67.2711C606.883 78.289 601.182 90.2932 594.47 103.212C590.068 112.834 583.789 124.261 575.73 137.516H575.056C573.036 135.544 571.304 134.581 569.836 134.581H569.163L566.228 135.062C563.557 137.973 561.416 140.668 559.708 143.193C557.639 144.132 553.574 146.754 547.464 151.036H546.838C548.065 147.909 548.714 145.936 548.714 145.142V142.76C548.209 142.76 546.838 142.015 544.529 140.451C544.529 139.489 545.106 137.685 546.237 135.062C546.237 131.141 544.481 129.169 540.92 129.169H540.343C538.226 129.169 536.47 130.347 535.026 132.705V135.062C535.844 138.647 536.831 140.451 537.985 140.451C537.312 141.63 536.686 142.76 536.061 143.891C529.349 148.678 523.864 152.191 519.654 154.476H519.149C519.149 151.084 521.507 143.963 526.173 133.186V132.609C526.173 131.935 525.813 131.526 525.043 131.382H523.239C522.637 131.382 520.857 133.186 517.922 136.794C516.888 136.794 515.492 136.578 513.736 136.121C511.932 136.121 509.983 136.722 507.866 137.853C505.341 139.417 503.392 141.101 501.949 142.833C495.934 148.63 491.652 152.311 489.102 153.802C490.185 149.665 491.604 145.551 493.288 141.461C492.951 139.489 492.35 138.502 491.484 138.502H489.776C485.398 138.502 480.851 142.424 476.088 150.29C476.521 148.871 476.737 148.077 476.737 147.909C492.855 107.806 501.107 86.5885 501.54 84.2309V83.1003C501.275 82.2583 500.289 81.4885 498.605 80.7909C497.835 80.7909 496.873 81.1517 495.646 81.8493L496.223 84.8083C485.229 112.137 477.531 131.983 473.057 144.372C472.576 144.469 472.143 144.637 471.758 144.877C460.571 154.284 453.282 158.975 449.89 158.975H448.182C448.182 158.59 447.99 157.988 447.605 157.17C451.574 145.744 456.073 140.066 461.125 140.066C461.125 141.149 460.74 142.327 459.946 143.675C459.946 144.469 460.331 144.877 461.125 144.877H464.06C465.07 144.877 465.864 143.506 466.345 140.716C466.345 138.599 464.613 137.179 461.125 136.554C456.121 136.554 451.887 139.104 448.302 144.228C442.048 148.847 436.395 152.527 431.222 155.27V152.335C435.144 143.001 437.116 137.685 437.116 136.386V135.808C436.563 134.653 436.01 134.076 435.408 134.076H433.099L431.222 135.303C431.222 135.64 431.439 136.217 431.872 137.011C427.494 146.85 425.353 153.153 425.353 155.943C425.353 158.253 426.531 159.384 428.937 159.384H430.741C435.071 158.036 439.474 155.751 443.924 152.551C443.371 153.995 442.818 155.535 442.264 157.17C442.264 160.009 444.237 161.813 448.182 162.559C454.341 162.559 461.846 158.758 470.651 151.276C470.001 153.225 469.472 154.909 469.135 156.184V156.737C469.352 157.916 470.507 158.469 472.648 158.469H473.802C476.569 158.469 480.707 153.778 486.167 144.396H486.817C484.844 148.823 483.858 151.95 483.858 153.802V156.184C484.411 157.339 484.989 157.916 485.59 157.916H490.834C492.903 156.906 495.622 154.789 498.99 151.613V151.998C499.326 153.201 500.553 153.802 502.598 153.802H503.849C507.457 153.802 510.97 151.421 514.41 146.682H514.987V147.355C514.145 148.871 513.736 151.036 513.736 153.802V154.476C513.736 156.737 514.963 157.916 517.345 157.916H519.149C522.18 157.916 526.294 156.016 531.418 152.335C527.28 160.129 523.96 167.034 521.531 172.879C521.531 173.601 521.915 173.962 522.661 173.962H526.173C529.397 166.913 534.738 156.882 542.147 143.915L543.302 144.468C543.302 145.07 542.724 147.259 541.594 151.036C541.594 153.369 542.965 154.548 545.755 154.548H546.838C549.316 154.548 552.299 153.345 555.787 150.964C555.378 152.215 555.138 153.418 555.089 154.548V155.198C555.089 155.919 555.45 156.28 556.172 156.28H560.334C561.801 156.28 563.99 155.27 566.901 153.321C570.846 149.376 573.83 147.427 575.73 147.427C575.73 144.926 577.486 141.774 580.974 138.021C567.19 169.319 560.334 186.038 560.334 188.107C560.598 189.31 561.801 189.911 563.918 189.911H564.423L566.228 188.684C566.228 188.3 566.035 187.722 565.65 186.952L616.337 68.522ZM504.908 149.617H504.402V149.063C506.062 144.805 508.396 141.87 511.475 140.235H512.678L513.736 140.788C513.736 141.726 510.801 144.661 504.908 149.617ZM540.92 135.062L539.862 134.581C539.862 133.811 540.198 133.378 540.92 133.33V135.062ZM570.895 142.76C568.441 146.802 565.145 149.953 560.983 152.263C562.018 147.981 564.76 143.434 569.163 138.599C569.932 138.599 570.51 139.777 570.895 142.183V142.76ZM283.467 123.034C279.137 125.271 276.996 126.643 276.996 127.196C276.996 127.966 277.405 128.351 278.223 128.351H279.931C280.917 128.351 283.299 127.797 287.052 126.619V123.034H283.467ZM324.051 143.747H321.116C312.287 152.431 307.379 156.737 306.369 156.737C311.084 145.936 313.418 139.657 313.418 137.853V135.544C312.84 134.413 312.263 133.836 311.71 133.836H309.352C306.369 133.836 302.279 137.348 296.963 144.396H296.313L296.963 143.169V142.039C296.963 141.317 296.578 140.908 295.736 140.788H294.028C292.2 142.688 290.756 144.541 289.577 146.345C284.478 149.953 279.762 152.96 275.456 155.27V152.335C279.353 143.001 281.326 137.685 281.326 136.386V135.808C280.797 134.653 280.22 134.076 279.618 134.076H277.309L275.456 135.303C275.456 135.64 275.649 136.217 276.082 137.011C274.903 139.681 273.893 142.087 273.051 144.204C266.531 148.823 261.191 152.263 257.101 154.476H256.62C256.62 151.084 258.954 143.963 263.645 133.186V132.609C263.645 131.935 263.26 131.526 262.514 131.382H260.71C260.108 131.382 258.328 133.186 255.393 136.794C254.335 136.794 252.939 136.578 251.207 136.121C249.403 136.121 247.43 136.722 245.313 137.853C241.104 140.499 238.409 143.386 237.206 146.489C226.958 158.518 220.872 164.532 218.948 164.532H218.274C218.274 164.195 218.154 163.618 217.817 162.824C218.154 154.043 228.546 127.1 248.994 82.0177C256.019 67.1508 259.555 59.3084 259.555 58.4183C265.882 48.94 270.044 41.266 271.992 35.4202C271.992 33.9047 271.439 33.1349 270.26 33.1349H269.057L266.122 33.7122C230.735 108.312 213.054 150.964 213.054 161.597V164.026C213.054 166.721 214.449 168.044 217.239 168.044C223.013 168.044 229.869 163.184 237.784 153.418C238.361 153.658 239.131 153.802 240.069 153.802H241.32C244.905 153.802 248.441 151.421 251.857 146.682H252.434V147.355C251.616 148.871 251.207 151.036 251.207 153.802V154.476C251.207 156.737 252.386 157.916 254.816 157.916H256.62C259.94 157.916 264.607 155.655 270.501 151.156C269.875 153.273 269.538 154.861 269.538 155.943C269.538 158.253 270.741 159.384 273.147 159.384H274.951C278.776 158.205 282.625 156.28 286.57 153.634C286.45 154.284 286.402 154.909 286.402 155.535V156.184C286.402 157.002 286.763 157.411 287.485 157.411H291.646C292.585 157.411 297.877 151.301 307.548 139.08H308.101C303.458 149.496 301.149 155.607 301.149 157.411V160.346L304.084 160.851H306.369C310.435 160.851 316.689 155.775 325.229 145.623V144.974C325.229 144.252 324.844 143.867 324.051 143.747ZM242.355 149.617H241.873V149.063C243.509 144.805 245.867 141.87 248.898 140.235H250.149L251.207 140.788C251.207 141.726 248.272 144.661 242.355 149.617ZM508.997 272.112C506.64 272.497 505.485 273.075 505.485 273.917C504.715 273.917 502.935 272.906 500.168 270.958C481.597 249.764 463.169 226.02 444.814 199.654C421.792 166.408 406.468 141.87 398.89 125.993L401.176 125.319C410.51 125.319 422.682 123.78 437.694 120.677C449.481 117.309 458.502 113.412 464.805 108.865C482.896 94.4069 491.965 81.2239 491.965 69.3159C491.965 67.3433 491.58 65.0579 490.738 62.3636C487.298 55.2188 481.043 51.6343 471.926 51.6343H468.967C455.207 51.6343 439.498 59.14 421.816 74.1753C411.28 84.0385 403.004 93.2281 397.014 101.744C382.724 122.385 371.129 143.001 362.3 163.618H361.627V163.064C377.384 122.192 391.337 88.4168 403.557 61.69C405.915 61.69 407.07 59.9579 407.07 56.4697C406.516 54.8339 405.939 54.0159 405.289 54.0159H403.557L400.622 54.5692L374.665 114.181C349.55 177.715 336.993 212.091 336.993 217.336C338.148 218.875 338.917 219.621 339.302 219.621H341.01C342.767 219.621 344.138 218.875 345.196 217.336C360.424 180 374.16 150.122 386.429 127.701C396.437 110.501 408.441 94.6234 422.466 80.0451C441.47 63.0852 456.963 54.5692 468.967 54.5692H470.675C480.947 55.6758 486.095 60.2225 486.095 68.2574C486.095 78.5777 478.806 90.5097 464.228 104.126C445.777 116.731 422.177 123.034 393.478 123.034L391.77 124.261L394.729 130.155C414.262 166.047 437.429 200.809 464.228 234.368C484.267 261.888 497.426 276.034 503.753 276.852H507.289C509.406 276.852 510.777 275.889 511.379 273.917C511.379 273.363 510.585 272.738 508.997 272.112ZM361.074 164.291C361.074 164.941 360.689 165.927 359.919 167.226V167.803H360.592C360.592 167.106 360.929 166.119 361.627 164.868V164.291H361.074ZM439.257 123.034C434.927 125.271 432.786 126.643 432.786 127.196C432.786 127.966 433.195 128.351 434.013 128.351H435.745C436.707 128.351 439.089 127.797 442.866 126.619V123.034H439.257ZM888.729 144.396H886.853C878.65 151.541 872.179 155.294 867.415 155.607H866.862C866.862 154.38 867.824 151.589 869.797 147.355C878.481 144.829 882.836 142.496 882.836 140.379C882.836 137.925 881.224 136.554 878 136.217H876.918L872.756 137.444C870.639 139.729 868.907 141.51 867.488 142.833C865.731 143.482 861.449 146.177 854.665 150.964H853.992C855.243 147.836 855.892 145.864 855.892 145.046V142.664C855.387 142.664 853.992 141.919 851.706 140.379C851.706 139.393 852.284 137.588 853.414 134.99C853.414 131.045 851.634 129.096 848.098 129.096H847.545C845.404 129.096 843.623 130.251 842.204 132.609V134.99C843.022 138.599 844.008 140.379 845.163 140.379C844.249 141.967 843.383 143.506 842.541 145.022C834.314 149.809 829.695 152.263 828.757 152.263L827.722 151.685C828.853 147.572 829.43 145.046 829.43 144.06V142.833L826.471 142.183H825.822L824.114 143.41C818.484 150.074 815.357 153.393 814.683 153.393C814.683 152.6 816.44 147.524 819.928 138.19V136.939C819.928 136.289 819.567 135.88 818.869 135.712H816.993C815.116 135.712 812.591 141.63 809.367 153.393C809.367 155.366 809.944 156.545 811.075 156.93H815.261C817.233 156.93 819.759 155.366 822.863 152.263C822.863 154.235 824.282 155.198 827.049 155.198H829.983C832.702 154.933 835.613 153.875 838.716 152.07C834.506 159.985 831.162 166.913 828.684 172.807C828.684 173.529 829.069 173.89 829.839 173.89H833.375C836.599 166.841 841.915 156.81 849.349 143.843L850.48 144.396C850.48 144.998 849.902 147.187 848.748 150.964C848.748 153.297 850.143 154.476 852.933 154.476H853.992C856.422 154.476 859.284 153.321 862.58 151.108C861.931 152.527 861.546 153.875 861.546 155.126C861.546 157.411 862.917 158.566 865.707 158.566H869.172C875.041 158.566 881.922 154.644 889.788 146.778V145.647C889.788 144.926 889.427 144.493 888.729 144.396ZM877.495 139.729L875.041 142.111H874.56C874.704 141.293 875.715 140.475 877.495 139.729ZM848.098 134.99L847.04 134.485C847.04 133.715 847.4 133.306 848.098 133.258V134.99ZM977.017 77.1583H836.575C840.135 69.0032 841.891 64.0956 841.891 62.4117C841.891 61.7381 841.506 61.3772 840.737 61.281H838.932L837.802 61.9065C833.327 72.0824 830.753 77.1583 830.08 77.1583H794.211C792.287 77.1583 791.06 77.7597 790.603 78.9626C790.603 79.7083 791.012 80.0932 791.782 80.0932H829.623L801.982 144.829C793.562 149.761 788.823 152.263 787.909 152.263L786.85 151.685C787.981 147.572 788.558 145.046 788.558 144.06V142.833L785.599 142.183H784.974L783.242 143.41C777.612 150.074 774.461 153.393 773.811 153.393C773.811 152.6 775.568 147.524 779.056 138.19V136.939C779.056 136.289 778.695 135.88 777.997 135.712H776.121C774.726 135.712 772.994 138.936 770.877 145.383C767.003 148.967 763.491 151.325 760.364 152.431C761.543 147.187 762.096 144.42 762.096 144.132C761.446 140.235 760.099 138.262 758.006 138.262L754.494 138.911C752.521 140.403 750.91 142.063 749.562 143.843C747.662 143.843 745.713 144.998 743.693 147.355C703.759 178.797 674.458 194.506 655.814 194.506H651.604C638.301 190.056 631.637 180.433 631.637 165.686C632.022 161.669 633.008 155.943 634.596 148.582C638.036 138.045 643.521 126.45 651.027 113.845C661.9 96.8606 675.877 79.7324 692.885 62.5079C707.656 49.2287 720.646 39.8226 731.881 34.2415C747.277 26.7118 760.821 22.9349 772.512 22.9349C776.121 22.9349 778.647 24.3302 780.114 27.1207V30.633C780.114 33.0868 777.997 38.4033 773.739 46.5344C769.457 49.9744 765.704 54.5211 762.433 60.1022C763.082 61.281 763.708 61.8343 764.309 61.8343H767.845C779.946 47.6891 786.008 37.5132 786.008 31.2825V28.3476C785.31 22.7665 781.991 20 776.121 20H767.845C756.226 20 742.442 24.1137 726.54 32.3651C715.571 37.2245 701.209 48.0259 683.479 64.7933C645.374 106.411 626.297 139.465 626.297 163.954V168.645C626.297 170.498 626.465 172.47 626.802 174.539C631.541 190.272 640.803 198.115 654.587 198.115C663.849 197.633 668.973 196.84 669.959 195.757C679.197 195.204 698.851 184.98 728.946 165.037C736.452 159.023 742.177 154.5 746.122 151.421C745.81 152.888 745.641 154.38 745.641 155.943V156.593C745.641 158.614 746.411 159.961 747.927 160.61H753.243C756.443 158.59 758.006 156.834 758.006 155.366C761.807 155.366 765.44 154.211 768.904 151.95C768.784 152.431 768.639 152.888 768.495 153.393C768.495 155.366 769.048 156.545 770.227 156.93H774.413C776.337 156.93 778.887 155.366 781.991 152.263C781.991 154.235 783.386 155.198 786.176 155.198H789.135C792.263 154.885 795.655 153.538 799.287 151.204L780.547 195.107C780.547 195.949 781.534 196.575 783.482 196.888C785.792 196.888 788.173 194.145 790.603 188.684C790.603 187.433 790.218 186.832 789.4 186.832C819.687 116.395 834.867 80.8149 834.867 80.0932H965.229L966.961 81.3442H969.271C976.416 81.3442 980 80.7668 980 79.6121V77.7357L977.017 77.1583ZM750.886 157.676H750.308V155.943L750.886 150.05C752.642 152.792 753.604 154.139 753.82 154.139C753.339 155.775 752.353 156.954 750.886 157.676ZM756.779 148.823H756.202V146.537H756.779V148.823ZM757.429 145.864H756.779V143.578H757.429V145.864Z" fill="#FFF5F5"/>
</g>
<defs>
<filter id="filter0_f_3_149" x="-6" y="-6" width="1012" height="308.852" filterUnits="userSpaceOnUse" color-interpolation-filters="sRGB">
<feFlood flood-opacity="0" result="BackgroundImageFix"/>
<feBlend mode="normal" in="SourceGraphic" in2="BackgroundImageFix" result="shape"/>
<feGaussianBlur stdDeviation="7.5" result="effect1_foregroundBlur_3_149"/>
</filter>
<filter id="filter1_d_3_149" x="17" y="17" width="966" height="262.852" filterUnits="userSpaceOnUse" color-interpolation-filters="sRGB">
<feFlood flood-opacity="0" result="BackgroundImageFix"/>
<feColorMatrix in="SourceAlpha" type="matrix" values="0 0 0 0 0 0 0 0 0 0 0 0 0 0 0 0 0 0 127 0" result="hardAlpha"/>
<feOffset/>
<feGaussianBlur stdDeviation="1.5"/>
<feColorMatrix type="matrix" values="0 0 0 0 0.831373 0 0 0 0 0.133333 0 0 0 0 0.0862745 0 0 0 1 0"/>
<feBlend mode="normal" in2="BackgroundImageFix" result="effect1_dropShadow_3_149"/>
<feBlend mode="normal" in="SourceGraphic" in2="effect1_dropShadow_3_149" result="shape"/>
</filter>
</defs>
</svg>
