<?xml version="1.0" encoding="UTF-8"?><svg id="Calque_2" xmlns="http://www.w3.org/2000/svg" viewBox="0 0 317.94 162.62"><defs><style>.cls-1{fill:#c60000;stroke-width:0px;}</style></defs><g id="Calque_1-2"><path class="cls-1" d="M150.34,11.11c2.03,0,3.21,1.44,3.54,4.32-.11,6.87-6.22,23.48-18.33,49.84,2.14,0,3.21.41,3.21,1.22v.44c0,.48-.28.72-.83.72h-3.54c0,1-13.71,29.33-41.14,85l.44.72c-.52,1.22-1.05,1.88-1.61,1.99h-2.82c-.48,0-.72-.24-.72-.72,21.6-44.74,35.55-73.87,41.86-87.38h-.44c-6.24-.52-15.27-.78-27.08-.78h-20.77c-11.52,12.04-24,26.38-37.43,43.03-12.51,15.17-25.8,32.21-39.87,51.11-1,.78-1.94,1.16-2.82,1.16-1.33-.22-1.99-.61-1.99-1.16.81-4.28,1.61-6.42,2.38-6.42h1.99l.83.44c19.34-26.25,40.06-52.05,62.13-77.42,5.43-5.72,8.64-9.3,9.64-10.74h-.83c-8.9,0-21.65.15-38.26.44-1.33,0-2.14-.55-2.44-1.66,1.51-1.33,3.12-1.99,4.82-1.99h1.16c.55,0,.83.41.83,1.22h36.71C111.86,28.91,135.65,11.11,150.34,11.11ZM84.12,64.11h.44c10.23,0,25.9.28,47.01.83,12.22-26.36,18.33-43.12,18.33-50.28l-.39-1.55c-13.07,1.15-34.87,18.15-65.4,51Z"/><path class="cls-1" d="M213.83,10.28h1.99c6.17,0,10.41,2.42,12.74,7.25.55,1.81.83,3.38.83,4.71,0,8.05-6.13,16.96-18.38,26.75-4.25,3.06-10.36,5.72-18.33,7.97-10.15,2.1-18.38,3.16-24.7,3.16l-1.55.44c5.13,10.74,15.49,27.36,31.07,49.84,12.4,17.83,24.88,33.91,37.43,48.23,1.88,1.33,3.08,1.99,3.6,1.99,0-.55.79-.96,2.38-1.22,1.07.44,1.61.85,1.61,1.22-.41,1.33-1.33,1.99-2.77,1.99h-2.38c-4.28-.55-13.2-10.13-26.75-28.74-18.13-22.7-33.8-46.2-47.01-70.49l-1.99-3.99,1.16-.83c19.42,0,35.37-4.26,47.84-12.79,9.86-9.19,14.79-17.28,14.79-24.25,0-5.43-3.47-8.51-10.41-9.25h-1.16c-8.12,0-18.61,5.74-31.45,17.22-9.49,9.86-17.61,20.6-24.37,32.23-8.31,15.17-17.61,35.39-27.91,60.64-.7,1.03-1.64,1.55-2.82,1.55h-1.16c-.26,0-.78-.52-1.55-1.55,0-3.54,8.49-26.8,25.47-69.77l17.55-40.31,1.99-.39h1.16c.44,0,.85.55,1.22,1.66,0,2.36-.79,3.54-2.38,3.54-8.27,18.05-17.72,40.9-28.35,68.55v.39h.44c5.98-13.95,13.81-27.91,23.48-41.86,4.06-5.76,9.65-11.98,16.78-18.66,11.96-10.15,22.59-15.23,31.9-15.23ZM140.84,86.48c0,.44-.26,1.11-.78,1.99v.39h.44c0-.48.24-1.14.72-1.99v-.39h-.39Z"/><path class="cls-1" d="M305.65,0h5.59c3.99,0,6.22,1.88,6.7,5.65v1.99c0,4.21-4.1,11.09-12.29,20.65h-2.38c-.41,0-.83-.39-1.27-1.16,2.21-3.8,4.76-6.87,7.64-9.19,2.88-5.5,4.32-9.08,4.32-10.74v-2.38c-1-1.88-2.71-2.82-5.15-2.82-7.9,0-17.05,2.55-27.46,7.64-7.61,3.77-16.39,10.13-26.36,19.1-11.52,11.67-20.95,23.24-28.3,34.72-5.09,8.53-8.8,16.35-11.13,23.48-1.07,4.98-1.73,8.84-1.99,11.57,0,9.97,4.5,16.46,13.51,19.49h2.82c12.63,0,32.43-10.63,59.42-31.9,1.37-1.59,2.7-2.38,3.99-2.38l1.99.39v1.61c-.96.48-6.28,4.6-15.95,12.35-20.34,13.47-33.63,20.4-39.87,20.77-.66.74-4.13,1.27-10.41,1.61-9.3,0-15.56-5.32-18.77-15.95-.22-1.4-.33-2.73-.33-3.99v-3.16c0-16.58,12.88-38.93,38.65-67.06,12-11.33,21.71-18.64,29.13-21.93,10.74-5.57,20.04-8.36,27.91-8.36Z"/></g></svg>